<svg xmlns="http://www.w3.org/2000/svg" viewBox="0 0 512 512" width="512" height="512">
  <defs>
    <linearGradient id="g" x1="0" y1="0" x2="1" y2="1">
      <stop offset="0" stop-color="#34d399"/>
      <stop offset="1" stop-color="#059669"/>
    </linearGradient>
  </defs>
  <rect width="512" height="512" rx="118" fill="url(#g)"/>
  <path d="M256 118c-48 0-86 35-86 80 0 24 11 43 30 56-3 13-8 32-8 32s21-11 35-21c8 3 19 5 29 5 48 0 86-35 86-80S304 118 256 118z" fill="#fff" opacity="0.95"/>
  <circle cx="230" cy="198" r="10" fill="#06281f"/>
  <circle cx="282" cy="198" r="10" fill="#06281f"/>
  <path d="M230 230 q26 22 52 0" stroke="#06281f" stroke-width="8" fill="none" stroke-linecap="round"/>
  <text x="256" y="400" font-family="system-ui,sans-serif" font-size="60" font-weight="800" fill="#fff" text-anchor="middle">SubTrack AI</text>
</svg>
